HIERARCHY
ROOT Hips
{
	OFFSET 0.000000 0.000000 0.000000 
	CHANNELS 6 Xposition Yposition Zposition Yrotation Zrotation Xrotation 
	JOINT Lumbar
	{
		OFFSET 0.000000 0.000000 0.000000 
		CHANNELS 3 Zrotation Xrotation Yrotation
		JOINT Neck
		{
			OFFSET 0.000000 0.445665 0.000000 
			CHANNELS 3 Zrotation Xrotation Yrotation
			End Site
			{
				OFFSET 0.000000 0.227535 0.000000 
			}
		}
		JOINT RightShoulder
		{
			OFFSET 0.019635 0.377685 0.194865 
			CHANNELS 3 Zrotation Xrotation Yrotation
			JOINT RightElbow
			{
				OFFSET 0.000000 -0.243375 0.000000 
				CHANNELS 2 Zrotation Yrotation
				JOINT RightWrist
				{
					OFFSET 0.000000 -0.264825 0.000000 
					CHANNELS 2 Zrotation Xrotation
					End Site
					{
						OFFSET 0.006600 -0.176220 0.000990 
					}
				}
			}
		}
		JOINT LeftShoulder
		{
			OFFSET 0.019635 0.377685 -0.194865 
			CHANNELS 3 Zrotation Xrotation Yrotation
			JOINT LeftElbow
			{
				OFFSET 0.000000 -0.243375 0.000000 
				CHANNELS 2 Zrotation Yrotation
				JOINT LeftWrist
				{
					OFFSET 0.000000 -0.264825 0.000000 
					CHANNELS 2 Zrotation Xrotation
					End Site
					{
						OFFSET 0.006600 -0.176220 -0.000990 
					}
				}
			}
		}
	}
	JOINT RightHip
	{
		OFFSET 0.052140 -0.069960 0.075570 
		CHANNELS 3 Zrotation Xrotation Yrotation
		JOINT RightKnee
		{
			OFFSET 0.000000 -0.402270 0.000000 
			CHANNELS 1 Zrotation
			JOINT RightAnkle
			{
				OFFSET 0.000000 -0.404085 0.000000 
				CHANNELS 3 Zrotation Xrotation Yrotation
				End Site
				{
					OFFSET 0.204105 -0.089430 0.008415 
				}
			}
		}
	}
	JOINT LeftHip
	{
		OFFSET 0.052140 -0.069960 -0.075570 
		CHANNELS 3 Zrotation Xrotation Yrotation
		JOINT LeftKnee
		{
			OFFSET 0.000000 -0.402270 0.000000 
			CHANNELS 1 Zrotation
			JOINT LeftAnkle
			{
				OFFSET 0.000000 -0.404085 0.000000 
				CHANNELS 3 Zrotation Xrotation Yrotation
				End Site
				{
					OFFSET 0.204105 -0.089430 -0.008415 
				}
			}
		}
	}
}
MOTION
Frames: 19
Frame Time: 0.02
-0.00111 -0.00171 -0.00112 28.8626 -18.73858 -3.48607 43.79868 -1.29906 -8.03996 -10.97205 4.92289 -1.20134 -20.48558 -7.41531 -1.1343 23.6806 56.38849 -3.08311 -4.5308 -21.16301 6.3747 -0.7593 27.82439 -105.30812 15.0346 -2.2368 28.75737 -2.36608 -8.23135 -19.97416 -5.98563 -2.39489 -3.36809 32.39198 3.91014 0.04585 -24.39592 -6.29807 1.4886 2.982
-0.00049 -0.00119 -0.00066 29.03664 -18.75897 -3.44669 43.87319 -1.34441 -8.03616 -10.99292 4.83381 -1.20282 -20.5215 -7.01161 -2.70441 23.90322 64.11972 -0.97619 -3.23462 -21.25583 6.41781 -0.79105 28.13155 -105.17651 14.98213 -2.22072 28.73404 -2.394 -8.31694 -19.955 -5.99692 -2.40281 -3.37239 32.4123 3.97082 0.22256 -24.37616 -6.32979 1.45048 2.96056
0.00012 -0.00068 -0.0002 29.21098 -18.7792 -3.40742 43.94746 -1.38966 -8.03224 -11.0139 4.74456 -1.2043 -20.55796 -6.60921 -4.26899 24.12574 71.82456 1.12378 -1.94297 -21.34838 6.46088 -0.82297 28.43822 -105.045 14.92969 -2.20469 28.71061 -2.42184 -8.40246 -19.93593 -6.0082 -2.41077 -3.37671 32.43259 4.03141 0.39928 -24.3565 -6.36151 1.41234 2.93913
0.00073 -0.00016 0.00025 29.38455 -18.79951 -3.36815 44.02174 -1.43487 -8.02845 -11.03473 4.65569 -1.20578 -20.59385 -6.20678 -5.83409 24.34779 79.53149 3.22412 -0.65089 -21.44093 6.50387 -0.85468 28.74451 -104.91374 14.87736 -2.18866 28.68732 -2.44968 -8.48781 -19.91683 -6.01945 -2.41866 -3.381 32.45284 4.09193 0.57554 -24.33681 -6.39314 1.37432 2.91775
0.00135 0.00036 0.00071 29.55769 -18.82001 -3.32879 44.09625 -1.48016 -8.02478 -11.05543 4.5671 -1.20726 -20.62902 -5.803 -7.40513 24.56968 87.26596 5.33165 0.64598 -21.53372 6.54687 -0.88608 29.0511 -104.78253 14.82505 -2.1726 28.66419 -2.47759 -8.57318 -19.89763 -6.03072 -2.42649 -3.38526 32.47315 4.1525 0.75156 -24.31703 -6.42476 1.33636 2.89638
0.00196 0.00087 0.00117 29.73461 -18.83965 -3.28973 44.17003 -1.52532 -8.02029 -11.07698 4.47646 -1.20875 -20.66819 -5.4035 -8.95615 24.79347 94.90825 7.41563 1.9266 -21.62573 6.59011 -0.91908 29.35788 -104.65041 14.77237 -2.15662 28.64014 -2.50529 -8.659 -19.87882 -6.04204 -2.43474 -3.38973 32.49342 4.21313 0.92974 -24.29761 -6.45669 1.29784 2.87481
0.00258 0.00139 0.00163 29.90326 -18.861 -3.25006 44.24521 -1.5707 -8.0176 -11.09673 4.39017 -1.21021 -20.69914 -4.99593 -10.54522 25.0133 102.72655 9.54444 3.23831 -21.71932 6.63278 -0.94892 29.66399 -104.52018 14.72045 -2.14049 28.61798 -2.53337 -8.74378 -19.85923 -6.05321 -2.4421 -3.39375 32.51365 4.2736 1.1034 -24.27747 -6.48792 1.26051 2.85368
0.00319 0.00191 0.00209 30.08042 -18.8808 -3.21103 44.31904 -1.61586 -8.013 -11.11829 4.29962 -1.21171 -20.7379 -4.59561 -12.10017 25.23658 110.38443 11.63237 4.5217 -21.81123 6.67602 -0.98152 29.97065 -104.38839 14.66792 -2.12449 28.59403 -2.5611 -8.82962 -19.84041 -6.06456 -2.45034 -3.39821 32.53409 4.33415 1.2812 -24.25803 -6.51985 1.22203 2.83212
0.00378 0.00241 0.00255 30.26471 -18.89861 -3.17245 44.39148 -1.66084 -8.00704 -11.1415 4.20471 -1.2132 -20.78544 -4.20475 -13.61007 25.46509 117.8415 13.6693 5.76951 -21.902 6.71984 -1.01816 30.27847 -104.25386 14.61421 -2.10869 28.56803 -2.58843 -8.91642 -19.82234 -6.076 -2.45942 -3.4031 32.55412 4.39509 1.46437 -24.23929 -6.55244 1.18232 2.8101
0.00447 0.00296 0.00303 30.39812 -18.92758 -3.13028 44.47269 -1.70712 -8.01181 -11.15355 4.13743 -1.21461 -20.78018 -3.76126 -15.36915 25.66658 126.43998 15.99662 7.21916 -22.00209 6.75996 -1.03354 30.58106 -104.13258 14.56599 -2.09187 28.55425 -2.61816 -8.99668 -19.79939 -6.0865 -2.46296 -3.40519 32.57449 4.4547 1.61757 -24.21606 -6.58064 1.15021 2.79092
0.00495 0.00342 0.00345 30.64507 -18.93318 -3.09636 44.53494 -1.75049 -7.99212 -11.19016 4.01031 -1.21627 -20.88769 -3.42766 -16.6089 25.92302 132.63893 17.71312 8.24476 -22.08074 6.80811 -1.09247 30.8937 -103.98496 14.50704 -2.07712 28.51443 -2.64277 -9.09136 -19.78711 -6.09926 -2.47863 -3.41341 32.59546 4.51653 1.83332 -24.2026 -6.6185 1.10177 2.76564
0.00492 0.00367 0.0037 31.15777 -18.87316 -3.07988 44.54795 -1.78694 -7.91891 -11.28616 3.72977 -1.21779 -21.29653 -3.40872 -16.35444 26.34816 132.10975 17.71953 8.0792 -22.11425 6.87684 -1.28286 31.24256 -103.75082 14.41135 -2.06884 28.40518 -2.65365 -9.22101 -19.80127 -6.11608 -2.52449 -3.43691 32.6081 4.58894 2.22745 -24.21385 -6.67969 1.01051 2.72437
0.00466 0.00383 0.00389 31.79389 -18.7903 -3.0728 44.5411 -1.82011 -7.81826 -11.40806 3.38708 -1.21973 -21.82001 -3.49815 -15.58942 26.8247 129.1918 17.11715 7.49198 -22.12343 6.95401 -1.51465 31.59985 -103.49277 14.30629 -2.06249 28.26976 -2.65928 -9.36591 -19.8267 -6.13568 -2.58314 -3.46688 32.62377 4.66255 2.68262 -24.23537 -6.75115 0.90253 2.67686
0.00447 0.004 0.00412 32.40233 -18.71844 -3.06459 44.54192 -1.85429 -7.72175 -11.52366 3.06585 -1.22202 -22.29652 -3.52882 -15.10563 27.26661 127.4684 16.81776 7.11689 -22.13515 7.02816 -1.71987 31.94773 -103.25507 14.21017 -2.05475 28.14459 -2.66721 -9.50694 -19.84881 -6.15523 -2.63792 -3.4949 32.64386 4.73294 3.1061 -24.25346 -6.81996 0.80084 2.63169
0.00446 0.00427 0.00431 32.88739 -18.64253 -3.04247 44.5497 -1.89113 -7.66181 -11.61725 2.77336 -1.22195 -22.75213 -3.59796 -14.42094 27.75809 125.30469 16.41321 6.65826 -22.18386 7.09847 -1.95845 32.31944 -102.97766 14.09398 -2.04921 28.02495 -2.67575 -9.63543 -19.86326 -6.16911 -2.68441 -3.51868 32.63715 4.81547 3.54847 -24.26605 -6.88026 0.70445 2.58853
0.00399 0.00431 0.00457 33.66331 -18.5714 -3.05238 44.53669 -1.92084 -7.51735 -11.76155 2.40601 -1.22696 -23.27779 -3.61507 -14.02382 28.15612 123.46113 16.07438 6.2688 -22.14839 7.17926 -2.13669 32.64319 -102.77679 14.01774 -2.03949 27.88931 -2.68146 -9.79324 -19.89642 -6.19613 -2.75133 -3.55293 32.68991 4.87192 3.96332 -24.2929 -6.96075 0.59332 2.53981
0.00239 0.00376 0.00501 35.17254 -18.50417 -3.1414 44.4842 -1.93849 -7.16179 -12.05036 1.84962 -1.24537 -23.97294 -3.44105 -14.63368 28.30343 123.36633 16.14762 6.21842 -21.89816 7.28315 -2.14412 32.83495 -102.79751 14.05096 -2.01818 27.70141 -2.68373 -10.03333 -19.97797 -6.25313 -2.87014 -3.61355 32.88122 4.86487 4.30899 -24.35356 -7.09393 0.44367 2.47648
0.00031 0.00296 0.00555 36.97755 -18.44543 -3.26362 44.40877 -1.94767 -6.71899 -12.38721 1.2198 -1.26896 -24.7331 -3.2149 -15.53536 28.35095 123.63039 16.29453 6.24488 -21.56191 7.39823 -2.08868 32.97762 -102.89519 14.12522 -1.99253 27.50117 -2.68304 -10.30258 -20.07814 -6.32425 -3.00922 -3.68462 33.13702 4.82961 4.62034 -24.42885 -7.24695 0.2803 2.40801
-0.00162 0.00227 0.00606 38.67314 -18.39245 -3.37531 44.3356 -1.95639 -6.30619 -12.69505 0.62171 -1.29052 -25.46167 -3.0262 -16.24456 28.43139 123.5399 16.35241 6.20567 -21.25725 7.51038 -2.05754 33.14119 -102.95486 14.18288 -1.9686 27.31594 -2.68134 -10.55372 -20.17002 -6.39271 -3.14008 -3.75162 33.3795 4.80188 4.93363 -24.49938 -7.39155 0.12425 2.34235
